<svg width="31" height="31" viewBox="0 0 31 31" fill="none" xmlns="http://www.w3.org/2000/svg">
<path fill-rule="evenodd" clip-rule="evenodd" d="M11.2428 4.36364C11.2428 8.20766 8.09656 11.3239 4.21551 11.3239C2.99648 11.3239 1.84995 11.0164 0.850645 10.4756C0.298917 12.0495 -0.000854492 13.7401 -0.000854492 15.5C-0.000854492 23.9569 6.92082 30.8125 15.4591 30.8125C16.1635 30.8125 16.8569 30.7658 17.5364 30.6755C17.1008 29.4082 16.8646 28.0496 16.8646 26.6364C16.8646 19.7171 22.5278 14.108 29.5137 14.108C29.9692 14.108 30.4192 14.1318 30.8623 14.1783C30.1858 6.34025 23.5479 0.1875 15.4591 0.1875C13.6822 0.1875 11.9754 0.484411 10.3863 1.03088C10.9324 2.02065 11.2428 3.15624 11.2428 4.36364Z" fill="#FFF6EC"/>
</svg>
