<?xml version="1.0" standalone="no"?>
<!DOCTYPE svg PUBLIC "-//W3C//DTD SVG 20010904//EN"
 "http://www.w3.org/TR/2001/REC-SVG-20010904/DTD/svg10.dtd">
<svg version="1.0" xmlns="http://www.w3.org/2000/svg"
 width="700.000000pt" height="700.000000pt" viewBox="0 0 700.000000 700.000000"
 preserveAspectRatio="xMidYMid meet">
<metadata>
Created by potrace 1.14, written by Peter Selinger 2001-2017
</metadata>
<g transform="translate(0.000000,700.000000) scale(0.100000,-0.100000)"
fill="#000000" stroke="none">
<path d="M3278 6995 c-1 -1 -42 -5 -89 -9 -47 -4 -95 -8 -105 -10 -10 -2 -46
-7 -79 -11 -32 -4 -68 -9 -80 -11 -11 -2 -45 -8 -75 -14 -82 -15 -88 -16 -180
-39 -47 -12 -137 -38 -201 -58 l-116 -36 44 -94 c95 -205 144 -417 146 -638 3
-286 -49 -507 -175 -755 -230 -450 -658 -761 -1163 -845 -165 -28 -407 -24
-560 9 -123 26 -270 75 -369 123 -38 19 -74 32 -80 30 -18 -7 -92 -268 -126
-442 -36 -187 -40 -215 -57 -395 -15 -163 -8 -592 12 -711 2 -13 6 -46 9 -74
9 -78 23 -156 51 -285 54 -251 162 -550 288 -800 61 -122 169 -312 187 -330 3
-3 31 -43 62 -90 170 -255 431 -534 708 -755 92 -74 370 -265 386 -265 4 0 15
-6 23 -14 26 -22 298 -158 411 -205 276 -115 580 -198 859 -237 25 -3 57 -8
71 -10 120 -19 575 -25 730 -10 89 8 154 17 158 20 1 2 -2 16 -8 32 -12 31
-66 224 -74 265 -2 13 -10 49 -16 79 -35 180 -45 295 -45 545 0 255 7 345 41
518 9 42 17 87 20 100 10 53 14 70 35 144 278 991 1051 1751 2049 2012 80 20
180 42 217 47 13 1 41 5 63 9 163 28 524 40 681 23 56 -6 56 -6 53 21 -2 14
-6 57 -9 96 -4 38 -8 72 -10 75 -2 3 -6 30 -10 60 -9 75 -69 337 -98 435 -259
850 -805 1553 -1559 2008 -124 75 -344 185 -480 241 -219 90 -557 184 -758
211 -19 3 -46 7 -60 10 -13 2 -52 7 -86 11 -33 3 -74 8 -90 10 -32 5 -540 14
-546 9z"/>
</g>
</svg>
