<svg width="50" height="51" viewBox="0 0 50 51" fill="none" xmlns="http://www.w3.org/2000/svg">
<circle cx="25" cy="25.5" r="23.5" fill="#201A16" stroke="#FFF6EC" stroke-width="3"/>
<path fill-rule="evenodd" clip-rule="evenodd" d="M26.0625 36.5H18.5V30H14.5C13.6716 30 13 29.3284 13 28.5C13 27.6716 13.6716 27 14.5 27H18.5V25H14.5C13.6716 25 13 24.3284 13 23.5C13 22.6716 13.6716 22 14.5 22H18.5V15.5H26.125C28.2708 15.5 30.1181 15.9204 31.6667 16.7612C33.2153 17.5952 34.4062 18.7949 35.2396 20.3604C36.0799 21.9258 36.5 23.7988 36.5 25.9795C36.5 28.167 36.0799 30.0469 35.2396 31.6191C34.4062 33.1914 33.2083 34.3979 31.6458 35.2388C30.0903 36.0796 28.2292 36.5 26.0625 36.5ZM23.0104 32.6958H25.875C27.2083 32.6958 28.3299 32.4634 29.2396 31.9985C30.1562 31.5269 30.8438 30.7988 31.3021 29.8145C31.7674 28.8232 32 27.5449 32 25.9795C32 24.4277 31.7674 23.1597 31.3021 22.1753C30.8438 21.1909 30.1597 20.4663 29.25 20.0015C28.3403 19.5366 27.2187 19.3042 25.8854 19.3042H23.0104V22H27.5C28.3284 22 29 22.6716 29 23.5C29 24.3284 28.3284 25 27.5 25H23.0104V27H27.5C28.3284 27 29 27.6716 29 28.5C29 29.3284 28.3284 30 27.5 30H23.0104V32.6958Z" fill="#D0762B"/>
</svg>
