<svg width="53" height="53" viewBox="0 0 53 53" fill="none" xmlns="http://www.w3.org/2000/svg">
<circle cx="26.25" cy="26.5" r="24" fill="#201A16" stroke="#FFF6EC" stroke-width="4"/>
<g opacity="0.4">
<path d="M26.25 12.5L17.25 26.5L26.25 22.6379V12.5Z" fill="#D0762B"/>
<path d="M26.25 12.5L35.25 26.5L26.25 22.6379V12.5Z" fill="#843714"/>
<path d="M26.25 22.5L17.25 26.5L26.25 30.5V22.5Z" fill="#6C2B0F"/>
<path d="M26.25 22.5L35.25 26.5L26.25 30.5V22.5Z" fill="#502010"/>
<path d="M26.25 32.5L17.25 28.5L26.25 40.5V32.5Z" fill="#D0762B"/>
<path d="M26.25 32.5L35.25 28.5L26.25 40.5V32.5Z" fill="#843714"/>
</g>
<g style="mix-blend-mode:lighten" opacity="0.4">
<path d="M24.6239 31.6677V31.4171C24.6288 30.5574 24.7049 29.8721 24.8523 29.3612C25.0046 28.8502 25.2257 28.4376 25.5155 28.1232C25.8054 27.8087 26.1542 27.5238 26.5619 27.2683C26.8665 27.0718 27.1392 26.868 27.3799 26.6567C27.6206 26.4455 27.8122 26.2121 27.9547 25.9567C28.0971 25.6963 28.1684 25.4064 28.1684 25.0871C28.1684 24.7481 28.0873 24.4509 27.9252 24.1954C27.7631 23.94 27.5445 23.7435 27.2693 23.6059C26.9991 23.4684 26.6995 23.3996 26.3703 23.3996C26.051 23.3996 25.7489 23.4708 25.4639 23.6133C25.179 23.7508 24.9456 23.9572 24.7639 24.2323C24.5821 24.5025 24.4838 24.839 24.4691 25.2419H21.4625C21.4871 24.2593 21.7229 23.4487 22.17 22.8101C22.617 22.1665 23.209 21.6875 23.9459 21.3731C24.6828 21.0538 25.4959 20.8941 26.3851 20.8941C27.3627 20.8941 28.2273 21.0562 28.979 21.3805C29.7306 21.6998 30.3201 22.164 30.7475 22.7732C31.1749 23.3824 31.3886 24.1168 31.3886 24.9766C31.3886 25.5514 31.2929 26.0623 31.1013 26.5093C30.9146 26.9515 30.6517 27.3445 30.3128 27.6884C29.9738 28.0274 29.5734 28.3344 29.1116 28.6095C28.7235 28.8404 28.4042 29.0811 28.1536 29.3317C27.908 29.5822 27.7238 29.8721 27.601 30.2012C27.483 30.5304 27.4216 30.9357 27.4167 31.4171V31.6677H24.6239ZM26.0829 36.3839C25.5917 36.3839 25.1716 36.2119 24.8228 35.868C24.4789 35.5192 24.3094 35.1017 24.3144 34.6153C24.3094 34.1339 24.4789 33.7212 24.8228 33.3773C25.1716 33.0334 25.5917 32.8615 26.0829 32.8615C26.5496 32.8615 26.9598 33.0334 27.3136 33.3773C27.6673 33.7212 27.8466 34.1339 27.8515 34.6153C27.8466 34.9395 27.7606 35.2368 27.5936 35.507C27.4315 35.7722 27.2178 35.9859 26.9525 36.1481C26.6872 36.3053 26.3973 36.3839 26.0829 36.3839Z" fill="white"/>
</g>
</svg>
