<svg width="51" height="50" viewBox="0 0 51 50" fill="none" xmlns="http://www.w3.org/2000/svg">
<circle cx="25.75" cy="25" r="23.5" fill="#201A16" stroke="#FFF6EC" stroke-width="3"/>
<path d="M25.75 11.0001L16.75 25.0001L25.75 21.1381V11.0001Z" fill="#D0762B"/>
<path d="M25.75 11.0001L34.75 25.0001L25.75 21.1381V11.0001Z" fill="#843714"/>
<path d="M25.75 21.0001L16.75 25.0001L25.75 29.0001V21.0001Z" fill="#6C2B0F"/>
<path d="M25.75 21.0001L34.75 25.0001L25.75 29.0001V21.0001Z" fill="#502010"/>
<path d="M25.75 31.0001L16.75 27.0001L25.75 39.0001V31.0001Z" fill="#6C2B0F"/>
<path d="M25.75 31.0001L34.75 27.0001L25.75 39.0001V31.0001Z" fill="#D0762B"/>
<path fill-rule="evenodd" clip-rule="evenodd" d="M23.8759 39.1892C19.3764 39.1892 15.7289 35.5348 15.7289 31.0269C15.7289 29.5625 16.1138 28.1882 16.7877 27L25.75 38.9722C25.1483 39.1141 24.5208 39.1892 23.8759 39.1892Z" fill="#D0762B"/>
<path fill-rule="evenodd" clip-rule="evenodd" d="M27.6241 39.1892C32.1236 39.1892 35.7711 35.5348 35.7711 31.0269C35.7711 29.5625 35.3862 28.1882 34.7123 27L25.75 38.9722C26.3517 39.1141 26.9792 39.1892 27.6241 39.1892Z" fill="#6C2B0F"/>
</svg>
